<svg width="18" height="19" viewBox="0 0 18 19" fill="none" xmlns="http://www.w3.org/2000/svg">
<path d="M11.25 4.625C11.25 5.85388 12.591 7.16661 13.356 7.81576C13.6581 8.06141 14.0911 8.06141 14.3933 7.81576C15.159 7.16661 16.5 5.85388 16.5 4.625" stroke="white" stroke-linecap="round" stroke-linejoin="round"/>
<path d="M13.8751 4.5875C13.8958 4.58758 13.9126 4.6044 13.9125 4.6251C13.9124 4.64579 13.8956 4.66253 13.875 4.6625C13.8543 4.66247 13.8375 4.64569 13.8375 4.625C13.8374 4.61501 13.8414 4.60542 13.8485 4.59837C13.8555 4.59132 13.8652 4.58741 13.8751 4.5875" stroke="white" stroke-linecap="round" stroke-linejoin="round"/>
<path d="M11.25 4.625V4.625C11.25 3.17525 12.4253 2 13.875 2V2C15.3247 2 16.5 3.17525 16.5 4.625V4.625" stroke="white" stroke-linecap="round" stroke-linejoin="round"/>
<path d="M2.6355 12.5H15.3654" stroke="white" stroke-linecap="round" stroke-linejoin="round"/>
<path d="M9.00418 3.5C7.34617 3.5 6.00208 6.52208 6.00208 10.25C6.00208 13.9779 7.34617 17 9.00418 17" stroke="white" stroke-linecap="round" stroke-linejoin="round"/>
<path d="M9.00418 8H2.6355" stroke="white" stroke-linecap="round" stroke-linejoin="round"/>
<path d="M15.75 10.25C15.75 13.9779 12.7279 17 9 17C5.27208 17 2.25 13.9779 2.25 10.25C2.25 6.52208 5.27208 3.5 9 3.5" stroke="white" stroke-linecap="round" stroke-linejoin="round"/>
<path d="M12.0021 10.25C12.0021 13.9779 10.658 17 9 17" stroke="white" stroke-linecap="round" stroke-linejoin="round"/>
</svg>
