<svg width="148" height="13" viewBox="0 0 148 13" fill="none" xmlns="http://www.w3.org/2000/svg">
<g clip-path="url(#clip0_7037_82)">
<path d="M0 0.534286C0.14769 1.11296 0.448482 1.6412 0.870786 2.0635C1.29309 2.4858 1.82132 2.7866 2.4 2.93429H6.17143L6.34286 2.96857V12.4314H8.67429V3.00286L8.91429 2.9H12.6857C13.2628 2.749 13.7892 2.4471 14.211 2.02532C14.6328 1.60353 14.9347 1.07707 15.0857 0.5L0 0.5V0.534286ZM81.8057 0.534286H79.4743V12.4657H90.1714C90.6783 12.2741 91.1307 11.9615 91.4892 11.5552C91.8478 11.1489 92.1016 10.6611 92.2286 10.1343H81.84V0.5L81.8057 0.534286ZM63.8743 2.86571C65.1086 2.52286 66.1371 1.56286 66.4114 0.5L53.3486 0.534286V7.59714H64.0114V10.0657H55.6457C55.007 10.2319 54.4108 10.5317 53.8966 10.9455C53.3824 11.3592 52.9619 11.8774 52.6629 12.4657H66.3429V5.26571H55.6457V2.86571H63.8743ZM103.714 12.4657H106.011V7.66571H114.446V12.4657H116.743V5.26571H103.714V12.4657ZM29.2457 2.9H38.16C38.7466 2.76123 39.2839 2.46403 39.7132 2.04081C40.1424 1.61758 40.4472 1.0846 40.5943 0.5L26.8457 0.5C26.99 1.08032 27.2897 1.61037 27.7125 2.03321C28.1353 2.45605 28.6654 2.75571 29.2457 2.9ZM29.2457 7.63143H38.16C38.7466 7.49266 39.2839 7.19546 39.7132 6.77223C40.1424 6.34901 40.4472 5.81603 40.5943 5.23143H26.8457C26.99 5.81175 27.2897 6.3418 27.7125 6.76464C28.1353 7.18748 28.6654 7.48714 29.2457 7.63143ZM29.2457 12.4657H38.16C38.7466 12.3269 39.2839 12.0297 39.7132 11.6065C40.1424 11.1833 40.4472 10.6503 40.5943 10.0657H26.8457C26.99 10.646 27.2897 11.1761 27.7125 11.5989C28.1353 12.0218 28.6654 12.3214 29.2457 12.4657ZM105.771 2.9H114.686C115.266 2.75571 115.796 2.45605 116.219 2.03321C116.642 1.61037 116.941 1.08032 117.086 0.5L103.371 0.5C103.516 1.08032 103.815 1.61037 104.238 2.03321C104.661 2.45605 105.191 2.75571 105.771 2.9Z" fill="white"/>
</g>
<defs>
<clipPath id="clip0_7037_82">
<rect width="148" height="12" fill="white" transform="translate(0 0.5)"/>
</clipPath>
</defs>
</svg>
